HIERARCHY
ROOT Hips
{
    OFFSET   0.000000   0.000000   0.000000
    CHANNELS 6 Xposition Yposition Zposition Zrotation Xrotation Yrotation
    JOINT Chest
    {
        OFFSET   0.000000   8.007230   0.000000
        CHANNELS 3 Zrotation Xrotation Yrotation
        JOINT Chest2
        {
            OFFSET   0.000000  22.077100   0.000000
            CHANNELS 3 Zrotation Xrotation Yrotation
            JOINT Neck
            {
                OFFSET   0.000000  23.254700   0.000000
                CHANNELS 3 Zrotation Xrotation Yrotation
                JOINT Head
                {
                    OFFSET   0.000010  14.370000   1.956610
                    CHANNELS 3 Zrotation Xrotation Yrotation
                    End Site
                    {
                        OFFSET   0.000000  19.566000   0.000000
                    }
                }
            }
            JOINT LeftCollar
            {
                OFFSET   3.911900  19.017000  -0.467063
                CHANNELS 3 Zrotation Xrotation Yrotation
                JOINT LeftShoulder
                {
                    OFFSET  10.383700   0.000000   0.000000
                    CHANNELS 3 Zrotation Xrotation Yrotation
                    JOINT LeftElbow
                    {
                        OFFSET  26.662100   0.001671   0.000522
                        CHANNELS 3 Zrotation Xrotation Yrotation
                        JOINT LeftWrist
                        {
                            OFFSET  28.869000   0.000037  -0.000114
                            CHANNELS 3 Zrotation Xrotation Yrotation
                            JOINT LeftFinger0
                            {
                                OFFSET   2.044650  -2.323450   3.252850
                                CHANNELS 3 Zrotation Xrotation Yrotation
                                JOINT LeftFinger01
                                {
                                    OFFSET   3.088140   0.000000   0.000000
                                    CHANNELS 3 Zrotation Xrotation Yrotation
                                    JOINT LeftFinger02
                                    {
                                        OFFSET   2.639460   0.000000   0.000000
                                        CHANNELS 3 Zrotation Xrotation Yrotation
                                        End Site
                                        {
                                            OFFSET   2.582190   0.000000   0.000000
                                        }
                                    }
                                }
                            }
                            JOINT LeftFinger1
                            {
                                OFFSET   8.364480   0.000000   3.252850
                                CHANNELS 3 Zrotation Xrotation Yrotation
                                JOINT LeftFinger11
                                {
                                    OFFSET   4.646930   0.000000   0.000000
                                    CHANNELS 3 Zrotation Xrotation Yrotation
                                    JOINT LeftFinger12
                                    {
                                        OFFSET   2.323470   0.000000   0.000000
                                        CHANNELS 3 Zrotation Xrotation Yrotation
                                        End Site
                                        {
                                            OFFSET   2.273050   0.000000   0.000000
                                        }
                                    }
                                }
                            }
                            JOINT LeftFinger2
                            {
                                OFFSET   8.364490   0.000016   1.078090
                                CHANNELS 3 Zrotation Xrotation Yrotation
                                JOINT LeftFinger21
                                {
                                    OFFSET   5.111620   0.000000   0.000000
                                    CHANNELS 3 Zrotation Xrotation Yrotation
                                    JOINT LeftFinger22
                                    {
                                        OFFSET   2.788150   0.000013   0.000000
                                        CHANNELS 3 Zrotation Xrotation Yrotation
                                        End Site
                                        {
                                            OFFSET   2.727660   0.000000   0.000000
                                        }
                                    }
                                }
                            }
                            JOINT LeftFinger3
                            {
                                OFFSET   7.899780   0.000016  -1.078090
                                CHANNELS 3 Zrotation Xrotation Yrotation
                                JOINT LeftFinger31
                                {
                                    OFFSET   4.646930   0.000000   0.000000
                                    CHANNELS 3 Zrotation Xrotation Yrotation
                                    JOINT LeftFinger32
                                    {
                                        OFFSET   2.323470   0.000000   0.000000
                                        CHANNELS 3 Zrotation Xrotation Yrotation
                                        End Site
                                        {
                                            OFFSET   2.273050   0.000000   0.000000
                                        }
                                    }
                                }
                            }
                            JOINT LeftFinger4
                            {
                                OFFSET   7.435080   0.000000  -3.252850
                                CHANNELS 3 Zrotation Xrotation Yrotation
                                JOINT LeftFinger41
                                {
                                    OFFSET   3.717550   0.000000   0.000000
                                    CHANNELS 3 Zrotation Xrotation Yrotation
                                    JOINT LeftFinger42
                                    {
                                        OFFSET   1.858760   0.000000   0.000000
                                        CHANNELS 3 Zrotation Xrotation Yrotation
                                        End Site
                                        {
                                            OFFSET   1.818440   0.000000   0.000000
                                        }
                                    }
                                }
                            }
                        }
                    }
                }
            }
            JOINT RightCollar
            {
                OFFSET  -3.911900  19.017000  -0.467064
                CHANNELS 3 Zrotation Xrotation Yrotation
                JOINT RightShoulder
                {
                    OFFSET -10.383700   0.000000   0.000000
                    CHANNELS 3 Zrotation Xrotation Yrotation
                    JOINT RightElbow
                    {
                        OFFSET -26.662100   0.001633   0.000260
                        CHANNELS 3 Zrotation Xrotation Yrotation
                        JOINT RightWrist
                        {
                            OFFSET -28.869000  -0.000045  -0.000080
                            CHANNELS 3 Zrotation Xrotation Yrotation
                            JOINT RightFinger0
                            {
                                OFFSET  -2.044660  -2.323490   3.252850
                                CHANNELS 3 Zrotation Xrotation Yrotation
                                JOINT RightFinger01
                                {
                                    OFFSET  -3.088140   0.000000   0.000000
                                    CHANNELS 3 Zrotation Xrotation Yrotation
                                    JOINT RightFinger02
                                    {
                                        OFFSET  -2.639450   0.000000   0.000000
                                        CHANNELS 3 Zrotation Xrotation Yrotation
                                        End Site
                                        {
                                            OFFSET  -2.582190   0.000000   0.000000
                                        }
                                    }
                                }
                            }
                            JOINT RightFinger1
                            {
                                OFFSET  -8.364480   0.000000   3.252850
                                CHANNELS 3 Zrotation Xrotation Yrotation
                                JOINT RightFinger11
                                {
                                    OFFSET  -4.646920   0.000000   0.000000
                                    CHANNELS 3 Zrotation Xrotation Yrotation
                                    JOINT RightFinger12
                                    {
                                        OFFSET  -2.323470   0.000000   0.000000
                                        CHANNELS 3 Zrotation Xrotation Yrotation
                                        End Site
                                        {
                                            OFFSET  -2.273050   0.000000   0.000000
                                        }
                                    }
                                }
                            }
                            JOINT RightFinger2
                            {
                                OFFSET  -8.364480   0.000000   1.078090
                                CHANNELS 3 Zrotation Xrotation Yrotation
                                JOINT RightFinger21
                                {
                                    OFFSET  -5.111610   0.000000   0.000000
                                    CHANNELS 3 Zrotation Xrotation Yrotation
                                    JOINT RightFinger22
                                    {
                                        OFFSET  -2.788160   0.000000   0.000000
                                        CHANNELS 3 Zrotation Xrotation Yrotation
                                        End Site
                                        {
                                            OFFSET  -2.727660   0.000000   0.000000
                                        }
                                    }
                                }
                            }
                            JOINT RightFinger3
                            {
                                OFFSET  -7.899780   0.000000  -1.078090
                                CHANNELS 3 Zrotation Xrotation Yrotation
                                JOINT RightFinger31
                                {
                                    OFFSET  -4.646930   0.000000   0.000000
                                    CHANNELS 3 Zrotation Xrotation Yrotation
                                    JOINT RightFinger32
                                    {
                                        OFFSET  -2.323470   0.000000   0.000000
                                        CHANNELS 3 Zrotation Xrotation Yrotation
                                        End Site
                                        {
                                            OFFSET  -2.273050   0.000000   0.000000
                                        }
                                    }
                                }
                            }
                            JOINT RightFinger4
                            {
                                OFFSET  -7.435090   0.000000  -3.252850
                                CHANNELS 3 Zrotation Xrotation Yrotation
                                JOINT RightFinger41
                                {
                                    OFFSET  -3.717550   0.000000   0.000000
                                    CHANNELS 3 Zrotation Xrotation Yrotation
                                    JOINT RightFinger42
                                    {
                                        OFFSET  -1.858760   0.000000   0.000000
                                        CHANNELS 3 Zrotation Xrotation Yrotation
                                        End Site
                                        {
                                            OFFSET  -1.818440   0.000000   0.000000
                                        }
                                    }
                                }
                            }
                        }
                    }
                }
            }
        }
    }
    JOINT LeftHip
    {
        OFFSET   9.782990   0.000000   0.000000
        CHANNELS 3 Zrotation Xrotation Yrotation
        JOINT LeftKnee
        {
            OFFSET  -0.000063 -41.789100   0.001657
            CHANNELS 3 Zrotation Xrotation Yrotation
            JOINT LeftAnkle
            {
                OFFSET   0.000078 -41.133200  -0.000113
                CHANNELS 3 Zrotation Xrotation Yrotation
                JOINT LeftToe
                {
                    OFFSET   0.000000  -6.358970  14.674500
                    CHANNELS 3 Zrotation Xrotation Yrotation
                    End Site
                    {
                        OFFSET   0.000000   0.000000   3.913200
                    }
                }
            }
        }
    }
    JOINT RightHip
    {
        OFFSET  -9.782990   0.000000   0.000000
        CHANNELS 3 Zrotation Xrotation Yrotation
        JOINT RightKnee
        {
            OFFSET   0.000053 -41.789200   0.000277
            CHANNELS 3 Zrotation Xrotation Yrotation
            JOINT RightAnkle
            {
                OFFSET   0.000030 -41.133200  -0.000150
                CHANNELS 3 Zrotation Xrotation Yrotation
                JOINT RightToe
                {
                    OFFSET   0.000000  -6.358960  14.674500
                    CHANNELS 3 Zrotation Xrotation Yrotation
                    End Site
                    {
                        OFFSET   0.000000   0.000000   3.913200
                    }
                }
            }
        }
    }
}
MOTION
Frames: 6
Frame Time:   0.016667
 -0.043933  89.517600   0.303322  -2.533360  -7.658580  -4.047610   0.792249   5.229980  -0.440015   1.635270  10.453200  -0.959010   1.229420  -0.150223  -0.004147   2.019820  -0.304041   8.851790  -5.204700  -0.535122   2.983100 -71.615700  21.508000  -4.482210  -1.183200  -5.467760 -20.933500  14.471800 -10.552300   6.827820  41.248900  39.382200 -68.997500 -34.752800   0.000102   0.001649 -12.376400   0.005192  -0.002017 -32.241200   5.738610  -9.006130 -26.752300  -0.000750  -0.004064 -18.726700   0.000128  -0.004949 -28.676100  -2.230480   4.070150 -40.420500  -0.001688  -0.005211 -26.920100   0.003568  -0.002000 -28.574300  -2.222550   4.074490 -38.055900  -0.002048  -0.007666 -25.338700   0.002307  -0.003792 -35.887300  -2.724040   3.758060 -53.965000  -0.003885  -0.007055 -35.940700   0.002818  -0.002507   7.986880   0.326690   9.424520  69.127300  23.705300  -0.273540  -3.898310  -0.259400  17.132200 -13.064600  -8.383300   0.575332 -37.509900  29.719800  62.070100  31.119900   0.001310  -0.002278  10.549300   0.002537  -0.001940  29.756600   7.127780  12.252300  24.981700  -0.002379  -0.000901  17.487200  -0.010083  -0.000355  28.496900   4.175760   7.658150  41.192700  -0.001129  -0.000456  27.434400  -0.002481   0.000267  28.246800   3.419920   6.338880  35.524400  -0.004594  -0.002706  23.659300  -0.003392  -0.001071  38.668400  -0.689883  -0.864699  58.010300  -0.005688  -0.002439  38.634800  -0.004099  -0.000382   1.236400  10.433400   3.874040   0.848166  -0.002442   8.597150  -0.724526  -3.156290   1.839450  -0.000000   0.000000   0.000000   3.001500  10.351100   0.300266   0.772912   0.356539  -9.771460  -1.925700  -3.671030   0.570624  -0.000000   0.000000   0.000000
 -0.023969  89.517600   0.307137  -2.545030  -7.658240  -4.084050   0.792692   5.237960  -0.440119   1.636270  10.469100  -0.959389   1.209040  -0.141759  -0.004155   1.986120  -0.287125   8.852300  -5.209100  -0.543630   2.963040 -71.582000  21.574100  -4.516390  -1.161740  -5.448670 -20.984700  14.481900 -10.559500   6.830520  41.253500  39.391600 -68.986800 -34.756300   0.000102   0.001650 -12.378200   0.005192  -0.002017 -32.243600   5.733200  -8.998390 -26.752800  -0.000752  -0.004064 -18.727000   0.000125  -0.004954 -28.675600  -2.234050   4.076670 -40.420600  -0.001687  -0.005205 -26.920200   0.003568  -0.001995 -28.573900  -2.226100   4.081020 -38.056100  -0.002047  -0.007668 -25.340800   0.002307  -0.003787 -35.885900  -2.728220   3.764210 -53.962800  -0.003887  -0.007052 -35.939300   0.002821  -0.002510   7.988010   0.318612   9.424500  69.117600  23.738900  -0.249075  -3.905190  -0.272927  17.144500 -13.043500  -8.378050   0.568282 -37.508300  29.716100  62.068200  31.115600   0.001302  -0.002275  10.549200   0.002539  -0.001937  29.756300   7.127760  12.253000  24.978700  -0.002377  -0.000907  17.485100  -0.010084  -0.000351  28.497300   4.176130   7.652500  41.191400  -0.001125  -0.000455  27.433500  -0.002479   0.000272  28.246700   3.420190   6.338890  35.523800  -0.004592  -0.002710  23.658900  -0.003394  -0.001069  38.668800  -0.689909  -0.864706  58.011000  -0.005685  -0.002433  38.635300  -0.004099  -0.000385   1.229620  10.445300   3.885480   0.838377  -0.005265   8.606140  -0.709237  -3.163540   1.856700  -0.000000   0.000000  -0.000000   2.992100  10.345400   0.309667   0.774432   0.375105  -9.752010  -1.918590  -3.670560   0.577202   0.000000   0.000000   0.000000
  0.010486  89.517700   0.314019  -2.565270  -7.657630  -4.148340   0.794576   5.252470  -0.440351   1.640260  10.498100  -0.960265   1.172560  -0.133296  -0.004163   1.926340  -0.270206   8.855890  -5.219380  -0.558175   2.933330 -71.542300  21.696700  -4.552410  -1.116240  -5.427810 -21.084900  14.496600 -10.580700   6.848810  41.258200  39.394100 -68.961400 -34.768600   0.000102   0.001655 -12.384300   0.005188  -0.002015 -32.252700   5.721550  -8.977940 -26.756300  -0.000756  -0.004066 -18.729400   0.000105  -0.004967 -28.674300  -2.243830   4.094540 -40.421500  -0.001682  -0.005189 -26.920700   0.003567  -0.001985 -28.572500  -2.235850   4.098900 -38.057700  -0.002043  -0.007670 -25.346400   0.002305  -0.003776 -35.883400  -2.740150   3.780720 -53.960700  -0.003892  -0.007046 -35.937800   0.002830  -0.002515   7.990440   0.302725   9.424470  69.102300  23.792700  -0.210717  -3.911320  -0.292818  17.164000 -13.014700  -8.369420   0.559092 -37.511200  29.712400  62.066300  31.109200   0.001288  -0.002270  10.549000   0.002540  -0.001932  29.754600   7.127740  12.253700  24.971900  -0.002371  -0.000913  17.480300  -0.010090  -0.000345  28.497900   4.176530   7.643290  41.182600  -0.001118  -0.000454  27.427600  -0.002473   0.000278  28.246700   3.420470   6.338890  35.519600  -0.004589  -0.002713  23.656000  -0.003396  -0.001065  38.669300  -0.689977  -0.864712  58.011700  -0.005679  -0.002424  38.635700  -0.004096  -0.000389   1.219060  10.463000   3.903490   0.821991  -0.008089   8.625290  -0.684262  -3.180790   1.885970  -0.000000   0.000000   0.000000   2.975470  10.339700   0.326422   0.775842   0.393690  -9.718320  -1.906400  -3.667280   0.589694   0.000000   0.000000   0.000000
  0.040597  89.517800   0.320563  -2.582680  -7.659670  -4.206920   0.798508   5.265430  -0.440661   1.648370  10.524000  -0.961458   1.137950  -0.134425  -0.004160   1.869670  -0.272631   8.864190  -5.233700  -0.570420   2.917070 -71.530900  21.822900  -4.556140  -1.058080  -5.431010 -21.180200  14.502900 -10.598400   6.884220  41.182900  39.315400 -68.898000 -34.792900   0.000091   0.001662 -12.396400   0.005177  -0.002013 -32.279500   5.707680  -8.947160 -26.775300  -0.000757  -0.004076 -18.742600   0.000056  -0.004985 -28.672000  -2.260030   4.124110 -40.428300  -0.001674  -0.005164 -26.925200   0.003562  -0.001974 -28.570200  -2.252020   4.128480 -38.068300  -0.002032  -0.007674 -25.354900   0.002304  -0.003761 -35.889200  -2.760490   3.807650 -53.971600  -0.003901  -0.007038 -35.945100   0.002844  -0.002522   7.993430   0.285042   9.426840  69.087700  23.829100  -0.186189  -3.909180  -0.302236  17.178100 -13.004200  -8.361180   0.557658 -37.522900  29.719500  62.058900  31.105400   0.001278  -0.002268  10.549700   0.002536  -0.001923  29.741300   7.123920  12.249700  24.959200  -0.002368  -0.000904  17.471400  -0.010104  -0.000343  28.497700   4.175000   7.637610  41.153700  -0.001113  -0.000445  27.408400  -0.002465   0.000280  28.247100   3.419070   6.335390  35.495800  -0.004587  -0.002707  23.640200  -0.003391  -0.001062  38.657100  -0.690083  -0.864697  57.993500  -0.005673  -0.002421  38.623700  -0.004089  -0.000389   1.211340  10.470200   3.916090   0.806566   0.008019   8.648750  -0.665341  -3.205800   1.910450  -0.000000   0.000000   0.000000   2.958930  10.352400   0.341919   0.777819   0.369853  -9.688380  -1.896290  -3.647890   0.602915   0.000000   0.000000   0.000000
  0.072003  89.517900   0.327859  -2.602840  -7.669230  -4.270580   0.803772   5.282170  -0.441040   1.659210  10.557500  -0.962986   1.100680  -0.140746  -0.004152   1.808270  -0.285539   8.877160  -5.251630  -0.583420   2.905890 -71.519200  21.959600  -4.558530  -0.983224  -5.432390 -21.324000  14.508000 -10.664300   6.956930  41.050000  39.180600 -68.788800 -34.822500   0.000067   0.001676 -12.411200   0.005164  -0.002010 -32.320500   5.688640  -8.904460 -26.806700  -0.000760  -0.004095 -18.764700   0.000000  -0.005009 -28.669200  -2.280180   4.160920 -40.440700  -0.001662  -0.005131 -26.933500   0.003553  -0.001960 -28.567300  -2.272160   4.165300 -38.088800  -0.002019  -0.007678 -25.367200   0.002302  -0.003742 -35.903100  -2.786030   3.840990 -53.994700  -0.003913  -0.007027 -35.960400   0.002862  -0.002531   7.997260   0.264210   9.434860  69.067800  23.866400  -0.162498  -3.907450  -0.310334  17.189500 -13.001800  -8.356320   0.556228 -37.529700  29.729700  62.048900  31.103600   0.001268  -0.002267  10.551800   0.002528  -0.001912  29.730800   7.116790  12.239800  24.950400  -0.002363  -0.000891  17.465200  -0.010121  -0.000341  28.497600   4.170460   7.629640  41.132400  -0.001107  -0.000431  27.394200  -0.002452   0.000281  28.248100   3.415010   6.326600  35.475600  -0.004584  -0.002696  23.626800  -0.003382  -0.001057  38.645000  -0.690213  -0.864682  57.975300  -0.005664  -0.002417  38.611600  -0.004080  -0.000388   1.206110  10.479000   3.926480   0.789101   0.038639   8.678450  -0.647019  -3.236210   1.935580   0.000000   0.000000   0.000000   2.943450  10.375700   0.359139   0.779817   0.346013  -9.657590  -1.885330  -3.624670   0.617922  -0.000000   0.000000   0.000000
  0.104352  89.518000   0.335330  -2.626970  -7.686890  -4.339570   0.809618   5.305260  -0.441463   1.671290  10.603600  -0.964789   1.062440  -0.155135  -0.004135   1.745470  -0.314413   8.895060  -5.272240  -0.597179   2.899060 -71.514700  22.103900  -4.528240  -0.887855  -5.421810 -21.548700  14.493000 -10.828800   7.090540  40.912600  39.028500 -68.631800 -34.858400   0.000036   0.001704 -12.429100   0.005153  -0.002005 -32.368600   5.653670  -8.830350 -26.840500  -0.000766  -0.004118 -18.788300  -0.000039  -0.005041 -28.665200  -2.307770   4.211360 -40.454700  -0.001644  -0.005094 -26.942800   0.003542  -0.001944 -28.563200  -2.299770   4.215730 -38.117200  -0.002007  -0.007684 -25.386100   0.002300  -0.003722 -35.921500  -2.821400   3.886370 -54.025700  -0.003929  -0.007013 -35.981100   0.002884  -0.002545   8.005830   0.240900   9.449810  69.043300  23.911200  -0.136068  -3.908470  -0.319815  17.196800 -13.010500  -8.364490   0.547729 -37.530400  29.735200  62.046300  31.109900   0.001256  -0.002270  10.555900   0.002517  -0.001905  29.735800   7.107220  12.223600  24.952400  -0.002355  -0.000889  17.466600  -0.010136  -0.000336  28.499000   4.161520   7.612950  41.138000  -0.001097  -0.000425  27.397900  -0.002433   0.000283  28.249900   3.407230   6.311720  35.484000  -0.004571  -0.002687  23.632400  -0.003371  -0.001051  38.647400  -0.690352  -0.864690  57.976900  -0.005650  -0.002408  38.614000  -0.004068  -0.000388   1.204360  10.493200   3.933250   0.770820   0.079385   8.715200  -0.629450  -3.271070   1.961700   0.000000   0.000000   0.000000   2.932280  10.396400   0.380630   0.779027   0.347231  -9.629380  -1.872770  -3.616160   0.634145  -0.000000   0.000000   0.000000
